<svg id="visual" viewBox="0 0 900 600" width="900" height="600" xmlns="http://www.w3.org/2000/svg" xmlns:xlink="http://www.w3.org/1999/xlink" version="1.1"><rect x="0" y="0" width="900" height="600" fill="#0f172a"></rect><defs><linearGradient id="grad1_0" x1="33.3%" y1="100%" x2="100%" y2="0%"><stop offset="20%" stop-color="#1e293b" stop-opacity="1"></stop><stop offset="80%" stop-color="#1e293b" stop-opacity="1"></stop></linearGradient></defs><defs><linearGradient id="grad1_1" x1="33.3%" y1="100%" x2="100%" y2="0%"><stop offset="20%" stop-color="#1e293b" stop-opacity="1"></stop><stop offset="80%" stop-color="#1c2639" stop-opacity="1"></stop></linearGradient></defs><defs><linearGradient id="grad1_2" x1="33.3%" y1="100%" x2="100%" y2="0%"><stop offset="20%" stop-color="#1a2436" stop-opacity="1"></stop><stop offset="80%" stop-color="#1c2639" stop-opacity="1"></stop></linearGradient></defs><defs><linearGradient id="grad1_3" x1="33.3%" y1="100%" x2="100%" y2="0%"><stop offset="20%" stop-color="#1a2436" stop-opacity="1"></stop><stop offset="80%" stop-color="#172134" stop-opacity="1"></stop></linearGradient></defs><defs><linearGradient id="grad1_4" x1="33.3%" y1="100%" x2="100%" y2="0%"><stop offset="20%" stop-color="#151f31" stop-opacity="1"></stop><stop offset="80%" stop-color="#172134" stop-opacity="1"></stop></linearGradient></defs><defs><linearGradient id="grad1_5" x1="33.3%" y1="100%" x2="100%" y2="0%"><stop offset="20%" stop-color="#151f31" stop-opacity="1"></stop><stop offset="80%" stop-color="#131c2f" stop-opacity="1"></stop></linearGradient></defs><defs><linearGradient id="grad1_6" x1="33.3%" y1="100%" x2="100%" y2="0%"><stop offset="20%" stop-color="#11192c" stop-opacity="1"></stop><stop offset="80%" stop-color="#131c2f" stop-opacity="1"></stop></linearGradient></defs><defs><linearGradient id="grad1_7" x1="33.3%" y1="100%" x2="100%" y2="0%"><stop offset="20%" stop-color="#11192c" stop-opacity="1"></stop><stop offset="80%" stop-color="#0f172a" stop-opacity="1"></stop></linearGradient></defs><defs><linearGradient id="grad2_0" x1="0%" y1="100%" x2="66.7%" y2="0%"><stop offset="20%" stop-color="#1e293b" stop-opacity="1"></stop><stop offset="80%" stop-color="#1e293b" stop-opacity="1"></stop></linearGradient></defs><defs><linearGradient id="grad2_1" x1="0%" y1="100%" x2="66.7%" y2="0%"><stop offset="20%" stop-color="#1c2639" stop-opacity="1"></stop><stop offset="80%" stop-color="#1e293b" stop-opacity="1"></stop></linearGradient></defs><defs><linearGradient id="grad2_2" x1="0%" y1="100%" x2="66.7%" y2="0%"><stop offset="20%" stop-color="#1c2639" stop-opacity="1"></stop><stop offset="80%" stop-color="#1a2436" stop-opacity="1"></stop></linearGradient></defs><defs><linearGradient id="grad2_3" x1="0%" y1="100%" x2="66.7%" y2="0%"><stop offset="20%" stop-color="#172134" stop-opacity="1"></stop><stop offset="80%" stop-color="#1a2436" stop-opacity="1"></stop></linearGradient></defs><defs><linearGradient id="grad2_4" x1="0%" y1="100%" x2="66.7%" y2="0%"><stop offset="20%" stop-color="#172134" stop-opacity="1"></stop><stop offset="80%" stop-color="#151f31" stop-opacity="1"></stop></linearGradient></defs><defs><linearGradient id="grad2_5" x1="0%" y1="100%" x2="66.7%" y2="0%"><stop offset="20%" stop-color="#131c2f" stop-opacity="1"></stop><stop offset="80%" stop-color="#151f31" stop-opacity="1"></stop></linearGradient></defs><defs><linearGradient id="grad2_6" x1="0%" y1="100%" x2="66.7%" y2="0%"><stop offset="20%" stop-color="#131c2f" stop-opacity="1"></stop><stop offset="80%" stop-color="#11192c" stop-opacity="1"></stop></linearGradient></defs><defs><linearGradient id="grad2_7" x1="0%" y1="100%" x2="66.7%" y2="0%"><stop offset="20%" stop-color="#0f172a" stop-opacity="1"></stop><stop offset="80%" stop-color="#11192c" stop-opacity="1"></stop></linearGradient></defs><g transform="translate(900, 600)"><path d="M-459.7 0C-450.4 -62.1 -441.2 -124.3 -411.1 -170.3C-381.1 -216.3 -330.3 -246.2 -290.6 -290.6C-251 -335.1 -222.5 -394.1 -175.9 -424.7C-129.3 -455.3 -64.7 -457.5 0 -459.7L0 0Z" fill="#10182b"></path><path d="M-402.2 0C-394.1 -54.4 -386 -108.8 -359.7 -149C-333.4 -189.3 -289 -215.4 -254.3 -254.3C-219.6 -293.2 -194.7 -344.8 -153.9 -371.6C-113.2 -398.4 -56.6 -400.3 0 -402.2L0 0Z" fill="#121b2e"></path><path d="M-344.8 0C-337.8 -46.6 -330.9 -93.2 -308.3 -127.7C-285.8 -162.2 -247.7 -184.6 -218 -218C-188.2 -251.3 -166.9 -295.6 -131.9 -318.5C-97 -341.5 -48.5 -343.1 0 -344.8L0 0Z" fill="#141d30"></path><path d="M-287.3 0C-281.5 -38.8 -275.7 -77.7 -257 -106.4C-238.2 -135.2 -206.4 -153.9 -181.6 -181.6C-156.9 -209.4 -139.1 -246.3 -110 -265.4C-80.8 -284.6 -40.4 -285.9 0 -287.3L0 0Z" fill="#162032"></path><path d="M-229.9 0C-225.2 -31.1 -220.6 -62.1 -205.6 -85.1C-190.5 -108.2 -165.1 -123.1 -145.3 -145.3C-125.5 -167.5 -111.2 -197.1 -88 -212.4C-64.7 -227.7 -32.3 -228.8 0 -229.9L0 0Z" fill="#182235"></path><path d="M-172.4 0C-168.9 -23.3 -165.4 -46.6 -154.2 -63.9C-142.9 -81.1 -123.9 -92.3 -109 -109C-94.1 -125.7 -83.4 -147.8 -66 -159.3C-48.5 -170.7 -24.3 -171.6 0 -172.4L0 0Z" fill="#1b2537"></path><path d="M-114.9 0C-112.6 -15.5 -110.3 -31.1 -102.8 -42.6C-95.3 -54.1 -82.6 -61.5 -72.7 -72.7C-62.7 -83.8 -55.6 -98.5 -44 -106.2C-32.3 -113.8 -16.2 -114.4 0 -114.9L0 0Z" fill="#1d283a"></path><path d="M-57.5 0C-56.3 -7.8 -55.1 -15.5 -51.4 -21.3C-47.6 -27 -41.3 -30.8 -36.3 -36.3C-31.4 -41.9 -27.8 -49.3 -22 -53.1C-16.2 -56.9 -8.1 -57.2 0 -57.5L0 0Z" fill="#1e293b"></path></g><g transform="translate(0, 0)"><path d="M459.7 0C432.9 51.5 406.1 103 388 160.7C370 218.5 360.7 282.5 325.1 325.1C289.4 367.6 227.3 388.6 168.8 407.4C110.2 426.3 55.1 443 0 459.7L0 0Z" fill="#10182b"></path><path d="M402.2 0C378.8 45 355.3 90.1 339.5 140.6C323.7 191.2 315.6 247.2 284.4 284.4C253.2 321.6 198.9 340 147.7 356.5C96.4 373 48.2 387.6 0 402.2L0 0Z" fill="#121b2e"></path><path d="M344.8 0C324.7 38.6 304.6 77.2 291 120.5C277.5 163.9 270.5 211.9 243.8 243.8C217.1 275.7 170.5 291.4 126.6 305.6C82.6 319.7 41.3 332.2 0 344.8L0 0Z" fill="#141d30"></path><path d="M287.3 0C270.6 32.2 253.8 64.4 242.5 100.5C231.2 136.6 225.5 176.6 203.2 203.2C180.9 229.7 142.1 242.9 105.5 254.6C68.9 266.4 34.4 276.9 0 287.3L0 0Z" fill="#162032"></path><path d="M229.9 0C216.4 25.7 203 51.5 194 80.4C185 109.2 180.4 141.3 162.5 162.5C144.7 183.8 113.7 194.3 84.4 203.7C55.1 213.1 27.5 221.5 0 229.9L0 0Z" fill="#182235"></path><path d="M172.4 0C162.3 19.3 152.3 38.6 145.5 60.3C138.7 81.9 135.3 106 121.9 121.9C108.5 137.8 85.3 145.7 63.3 152.8C41.3 159.9 20.7 166.1 0 172.4L0 0Z" fill="#1b2537"></path><path d="M114.9 0C108.2 12.9 101.5 25.7 97 40.2C92.5 54.6 90.2 70.6 81.3 81.3C72.4 91.9 56.8 97.1 42.2 101.9C27.5 106.6 13.8 110.7 0 114.9L0 0Z" fill="#1d283a"></path><path d="M57.5 0C54.1 6.4 50.8 12.9 48.5 20.1C46.2 27.3 45.1 35.3 40.6 40.6C36.2 45.9 28.4 48.6 21.1 50.9C13.8 53.3 6.9 55.4 0 57.5L0 0Z" fill="#1e293b"></path></g></svg>